<?xml version="1.0" standalone="no"?>
<!DOCTYPE svg PUBLIC "-//W3C//DTD SVG 20010904//EN"
 "http://www.w3.org/TR/2001/REC-SVG-20010904/DTD/svg10.dtd">
<svg version="1.0" xmlns="http://www.w3.org/2000/svg"
 width="444.000000pt" height="444.000000pt" viewBox="0 0 444.000000 444.000000"
 preserveAspectRatio="xMidYMid meet">
<metadata>
Created by potrace 1.11, written by Peter Selinger 2001-2013
</metadata>
<g transform="translate(0.000000,444.000000) scale(0.100000,-0.100000)"
fill="#000000" stroke="none">
<path d="M1805 4398 c-45 -17 -91 -48 -179 -121 -102 -85 -139 -97 -326 -106
-207 -10 -225 -22 -339 -220 -63 -107 -105 -143 -219 -187 -227 -87 -254 -115
-292 -305 -38 -193 -45 -204 -212 -351 -120 -107 -138 -167 -102 -357 28 -151
22 -177 -91 -390 -36 -66 -40 -81 -40 -146 0 -65 4 -80 40 -146 113 -213 119
-239 91 -390 -36 -190 -18 -250 102 -357 167 -147 174 -158 212 -351 37 -185
69 -220 260 -291 44 -16 93 -36 110 -45 42 -22 96 -81 132 -144 66 -116 108
-170 156 -198 44 -26 57 -28 193 -34 189 -8 222 -19 335 -114 166 -138 207
-145 416 -77 70 23 146 42 168 42 23 0 99 -19 168 -42 201 -68 255 -59 397 63
39 33 88 71 110 84 49 29 139 45 265 45 162 1 206 28 299 186 86 144 119 174
239 220 227 87 254 115 292 305 38 193 45 204 212 351 120 107 138 167 102
357 -28 151 -22 177 91 390 36 66 40 81 40 146 0 65 -4 80 -40 146 -113 213
-119 239 -91 390 36 190 18 250 -102 357 -167 147 -174 158 -212 351 -37 185
-69 220 -260 291 -44 16 -93 36 -110 45 -42 22 -96 81 -132 144 -66 116 -108
170 -156 198 -44 26 -57 28 -193 34 -189 8 -222 19 -335 114 -166 138 -207
145 -416 77 -70 -23 -146 -42 -169 -42 -22 0 -96 18 -162 41 -133 44 -206 55
-252 37z m425 -303 c0 -11 -11 -15 -40 -15 -29 0 -40 4 -40 15 0 11 11 15 40
15 29 0 40 -4 40 -15z m134 -6 c-8 -14 -74 -11 -74 4 0 9 12 11 40 9 22 -2 37
-8 34 -13z m-274 1 c0 -5 -18 -10 -40 -10 -22 0 -40 5 -40 10 0 6 18 10 40 10
22 0 40 -4 40 -10z m-140 -15 c0 -10 -11 -15 -35 -15 -41 0 -47 17 -7 23 15 2
30 5 35 6 4 0 7 -6 7 -14z m550 2 c0 -9 -11 -12 -35 -9 -19 2 -35 8 -35 13 0
5 16 9 35 9 22 0 35 -5 35 -13z m138 -22 c12 -11 -8 -16 -42 -10 -48 9 -48 29
0 22 20 -3 39 -9 42 -12z m-818 -4 c0 -9 -34 -21 -62 -21 -26 0 -22 18 5 23
40 8 57 7 57 -2z m948 -26 c11 -11 -9 -16 -37 -10 -42 9 -41 29 1 21 17 -3 34
-8 36 -11z m-1103 -21 c-36 -15 -55 -17 -55 -5 0 10 62 29 75 22 5 -2 -4 -11
-20 -17z m1229 -25 c5 -5 7 -11 5 -14 -8 -7 -69 18 -69 28 0 11 51 0 64 -14z
m-1341 -6 c10 -10 -53 -34 -66 -26 -7 4 1 12 18 19 36 16 40 16 48 7z m916
-19 c271 -39 504 -130 732 -283 698 -468 965 -1368 637 -2141 -187 -443 -555
-794 -1008 -963 -196 -73 -389 -107 -610 -107 -361 0 -682 98 -981 299 -698
468 -965 1368 -637 2141 238 563 754 962 1363 1054 125 19 374 19 504 0z m536
-16 c25 -11 34 -28 15 -28 -16 0 -60 23 -60 32 0 11 14 10 45 -4z m-1575 -18
c0 -8 -51 -40 -65 -40 -15 0 -2 21 23 34 32 18 42 19 42 6z m1720 -62 c0 -11
-15 -10 -45 4 -14 6 -25 17 -25 24 0 11 8 10 35 -3 19 -9 35 -20 35 -25z
m-1856 -15 c-37 -28 -54 -34 -54 -21 0 15 51 47 64 40 5 -3 0 -11 -10 -19z
m1963 -45 c24 -19 2 -27 -27 -10 -36 21 -43 49 -7 31 12 -6 28 -16 34 -21z
m-2067 -16 c0 -12 -56 -42 -64 -35 -4 4 3 15 16 25 24 18 48 24 48 10z m2172
-60 c29 -24 9 -33 -22 -10 -16 12 -27 25 -24 30 6 9 19 3 46 -20z m-2282 -18
c0 -10 -45 -43 -59 -44 -10 0 -7 8 9 25 21 23 50 34 50 19z m2385 -64 c28 -31
8 -37 -23 -7 -19 20 -22 27 -11 27 9 0 24 -9 34 -20z m-2511 -51 c-15 -15 -31
-26 -36 -23 -5 4 3 19 18 35 15 15 31 26 36 23 5 -4 -3 -19 -18 -35z m2615
-43 c12 -13 18 -26 13 -30 -5 -3 -22 8 -37 24 -20 21 -24 30 -14 30 9 0 26
-11 38 -24z m-2713 -51 c-15 -23 -36 -34 -36 -18 0 10 43 54 48 48 3 -2 -3
-16 -12 -30z m2803 -52 c12 -14 19 -28 16 -31 -6 -6 -55 38 -55 50 0 16 19 7
39 -19z m-2903 -61 c-17 -17 -26 -22 -26 -12 0 19 44 64 48 50 3 -7 -7 -24
-22 -38z m3004 -74 c0 -5 -4 -8 -9 -8 -14 0 -52 56 -43 64 7 7 52 -42 52 -56z
m-3060 3 c0 -6 -11 -23 -25 -38 -27 -31 -34 -16 -9 22 16 25 34 33 34 16z
m3131 -103 c7 -13 6 -18 -3 -18 -16 0 -50 54 -41 64 7 7 25 -12 44 -46z
m-3222 -43 c-12 -19 -25 -32 -31 -29 -5 3 -4 15 5 27 7 12 17 28 21 35 4 7 11
10 16 7 5 -3 0 -21 -11 -40z m3276 -55 c17 -33 18 -40 7 -40 -11 0 -43 56 -35
64 10 9 11 8 28 -24z m-3342 -65 c-10 -21 -20 -32 -26 -26 -11 11 20 74 33 66
5 -3 2 -21 -7 -40z m3405 -60 c14 -31 15 -45 3 -45 -7 0 -31 51 -31 66 0 14
19 -1 28 -21z m-3453 -42 c-4 -10 -10 -26 -12 -35 -3 -10 -12 -18 -20 -18 -8
0 -12 4 -9 9 3 4 10 20 15 35 6 14 16 26 22 26 7 0 8 -7 4 -17z m3504 -85 c7
-18 8 -35 2 -41 -7 -7 -31 41 -31 64 0 21 19 6 29 -23z m-3555 -55 c-7 -31
-21 -50 -29 -41 -8 7 15 68 26 68 5 0 6 -12 3 -27z m3598 -78 c11 -42 -4 -54
-18 -14 -16 44 -17 52 -2 47 7 -3 15 -17 20 -33z m-3637 -57 c-8 -36 -20 -55
-27 -41 -8 13 11 73 23 73 7 0 8 -12 4 -32z m3674 -100 c2 -30 -17 -20 -24 12
-8 38 6 65 16 30 4 -14 7 -33 8 -42z m-3705 -46 c-4 -18 -10 -32 -15 -32 -10
0 -11 25 -3 58 10 35 25 11 18 -26z m3720 -48 c9 -25 7 -64 -4 -64 -5 0 -10 8
-10 18 0 9 -3 27 -6 40 -7 25 11 31 20 6z m-3734 -71 c0 -29 -15 -61 -24 -52
-8 8 6 79 15 79 5 0 9 -12 9 -27z m3750 -88 c0 -19 -4 -35 -10 -35 -5 0 -10
16 -10 35 0 19 5 35 10 35 6 0 10 -16 10 -35z m-3760 -60 c0 -19 -4 -35 -10
-35 -5 0 -10 16 -10 35 0 19 5 35 10 35 6 0 10 -16 10 -35z m3760 -81 c0 -27
-4 -43 -10 -39 -5 3 -10 24 -10 46 0 21 5 39 10 39 6 0 10 -21 10 -46z m-3760
-54 c0 -22 -4 -40 -10 -40 -11 0 -14 63 -3 73 11 12 13 8 13 -33z m3756 -66
c-3 -9 -6 -24 -6 -35 0 -10 -4 -19 -10 -19 -5 0 -10 16 -10 35 0 25 4 35 16
35 11 0 14 -5 10 -16z m-3743 -71 c7 -41 1 -55 -13 -33 -12 19 -13 70 -1 70 4
0 11 -17 14 -37z m3724 -79 c-3 -20 -9 -39 -12 -42 -12 -12 -17 9 -11 43 9 47
31 47 23 -1z m-3702 -55 c6 -28 1 -48 -10 -37 -3 2 -8 19 -11 36 -8 42 12 43
21 1z m3675 -71 c0 -26 -16 -55 -25 -47 -8 8 6 69 16 69 5 0 9 -10 9 -22z
m-3643 -63 c13 -41 -2 -59 -17 -20 -12 32 -13 55 -2 55 5 0 13 -16 19 -35z
m3607 -72 c-7 -31 -21 -50 -29 -41 -8 7 15 68 26 68 5 0 6 -12 3 -27z m-3566
-55 c7 -18 8 -36 3 -41 -7 -7 -31 41 -31 64 0 21 17 6 28 -23z m3518 -80 c-8
-18 -20 -34 -27 -37 -8 -2 -10 2 -4 15 4 11 10 27 12 37 3 9 11 17 19 17 11 0
11 -5 0 -32z m-3467 -49 c13 -38 13 -39 3 -39 -9 0 -32 44 -32 60 0 22 19 8
29 -21z m3406 -88 c-22 -43 -39 -29 -18 14 10 21 20 32 26 26 5 -5 2 -22 -8
-40z m-3348 -33 c22 -49 9 -54 -19 -9 -16 25 -17 31 -6 31 8 0 19 -10 25 -22z
m3284 -80 c-17 -28 -28 -36 -32 -25 -4 10 27 57 39 57 11 0 9 -7 -7 -32z
m-3200 -60 c7 -13 6 -18 -3 -18 -16 0 -50 54 -41 64 7 7 25 -12 44 -46z m3139
-30 c-1 -19 -37 -64 -45 -56 -4 4 3 21 15 37 23 34 30 38 30 19z m-3072 -67
c12 -17 18 -32 13 -36 -10 -5 -51 40 -51 56 0 18 17 8 38 -20z m2992 -49 c0
-5 -11 -19 -25 -32 -28 -27 -36 -8 -8 22 17 19 33 24 33 10z m-2910 -57 c25
-27 21 -47 -5 -25 -21 17 -38 50 -27 50 5 0 19 -11 32 -25z m2820 -42 c0 -10
-42 -53 -52 -53 -5 0 0 14 12 30 20 28 40 39 40 23z m-2713 -89 c-10 -10 -58
37 -50 48 3 6 17 -2 31 -16 14 -14 23 -29 19 -32z m2598 -34 c-15 -16 -32 -27
-37 -24 -12 8 31 54 51 54 10 0 6 -9 -14 -30z m-2495 -58 c-15 -5 -61 38 -54
50 4 5 19 -3 36 -19 16 -15 24 -29 18 -31z m2410 -11 c0 -5 -12 -19 -27 -31
-34 -27 -45 -8 -11 20 25 21 38 25 38 11z m-2296 -73 c-6 -9 -19 -3 -46 20
-29 24 -9 33 22 10 16 -12 27 -25 24 -30z m2180 -25 c-10 -8 -27 -19 -36 -24
-30 -16 -21 14 9 33 32 19 55 12 27 -9z m-2089 -28 c19 -16 25 -24 15 -25 -19
0 -60 28 -60 41 0 15 13 10 45 -16z m1985 -32 c0 -11 -62 -45 -69 -38 -3 4 5
15 19 25 26 20 50 26 50 13z m-1840 -55 c0 -11 -15 -10 -45 4 -14 6 -25 17
-25 24 0 11 8 10 35 -3 19 -9 35 -20 35 -25z m1715 -8 c5 -8 -43 -40 -60 -40
-15 0 -2 21 23 34 33 18 30 18 37 6z m-1620 -32 c25 -11 34 -28 15 -28 -16 0
-60 23 -60 32 0 11 14 10 45 -4z m1499 -27 c6 -9 -36 -31 -59 -31 -24 0 -17
15 13 27 35 14 40 15 46 4z m-1375 -22 c29 -10 43 -29 22 -29 -20 0 -61 20
-61 30 0 12 0 12 39 -1z m1245 -28 c3 -5 -5 -12 -18 -15 -13 -3 -31 -9 -40
-12 -9 -3 -16 -2 -16 4 0 6 12 15 28 20 35 13 40 14 46 3z m-1084 -33 c0 -9
-16 -10 -47 -2 -13 4 -23 12 -23 19 0 10 8 11 35 2 19 -6 35 -14 35 -19z m955
-8 c3 -5 2 -10 -3 -10 -5 0 -24 -3 -41 -6 -19 -4 -31 -2 -31 4 0 18 65 29 75
12z m-832 -10 c9 0 17 -4 17 -10 0 -11 -39 -13 -64 -4 -25 9 -19 27 7 20 12
-3 30 -6 40 -6z m697 -19 c0 -9 -71 -23 -79 -15 -9 9 23 24 52 24 15 0 27 -4
27 -9z m-550 -14 c0 -9 -11 -12 -35 -9 -19 2 -35 8 -35 13 0 5 16 9 35 9 22 0
35 -5 35 -13z m140 -13 c0 -12 -6 -15 -22 -10 -13 3 -31 6 -40 6 -10 0 -18 5
-18 10 0 6 18 10 40 10 30 0 40 -4 40 -16z m135 1 c0 -5 -17 -11 -37 -13 -30
-3 -38 0 -38 13 0 13 8 16 38 13 20 -2 37 -7 37 -13z m135 5 c0 -5 -16 -10
-35 -10 -19 0 -35 5 -35 10 0 6 16 10 35 10 19 0 35 -4 35 -10z"/>
<path d="M2065 3859 c-506 -53 -965 -343 -1242 -784 -18 -27 -54 -97 -82 -155
-250 -524 -205 -1142 118 -1622 254 -376 633 -627 1086 -715 142 -28 455 -25
603 5 720 146 1248 720 1332 1447 21 189 5 407 -45 598 -117 450 -442 850
-865 1062 -271 136 -600 196 -905 164z m-121 -211 c-121 -126 -229 -276 -314
-433 -24 -44 -45 -82 -46 -84 -12 -14 -404 170 -404 189 0 15 103 100 195 162
159 107 342 187 520 228 138 32 138 31 49 -62z m626 63 c181 -41 375 -126 530
-232 90 -62 190 -145 190 -159 0 -19 -392 -203 -404 -189 -1 2 -22 40 -46 84
-85 157 -193 307 -314 433 -88 92 -88 92 44 63z m-390 -348 l0 -346 -103 6
c-100 5 -355 51 -369 65 -10 10 80 168 162 284 52 74 291 338 306 338 2 0 4
-156 4 -347z m420 9 c82 -117 172 -274 162 -284 -14 -14 -262 -58 -366 -65
l-106 -6 0 349 1 349 122 -125 c67 -69 151 -167 187 -218z m-1451 -176 c73
-44 240 -126 316 -156 33 -13 61 -24 63 -25 1 -1 -16 -57 -39 -125 -54 -162
-86 -314 -101 -482 l-12 -138 -339 0 -339 0 7 73 c28 301 142 584 333 830 25
31 47 57 50 57 2 0 30 -15 61 -34z m2284 -26 c126 -156 228 -358 283 -557 21
-79 53 -271 54 -325 0 -17 -23 -18 -338 -18 l-338 0 -12 128 c-16 168 -53 347
-103 494 -22 66 -39 121 -37 123 2 1 35 15 73 30 85 34 220 101 300 149 33 20
63 35 66 33 4 -1 27 -27 52 -57z m-1543 -246 c52 -8 138 -18 190 -22 l95 -7 3
-312 2 -313 -340 0 -340 0 0 39 c0 72 30 274 56 381 22 89 46 163 84 266 l8
21 74 -19 c40 -10 116 -26 168 -34z m974 -64 c57 -171 106 -422 106 -551 l0
-39 -340 0 -340 0 2 313 3 312 95 7 c114 8 259 31 355 56 39 10 73 16 77 13 3
-4 22 -53 42 -111z m-1476 -837 c15 -152 48 -321 92 -456 29 -92 31 -117 10
-117 -24 0 -227 -97 -324 -155 l-108 -64 -19 22 c-11 12 -46 62 -80 111 -138
204 -227 455 -254 719 l-7 67 339 0 339 0 12 -127z m792 -152 l0 -280 -52 -5
c-191 -19 -267 -30 -364 -52 -60 -14 -115 -26 -123 -27 -38 -5 -141 434 -141
604 l0 39 340 0 340 0 0 -279z m790 237 c0 -66 -26 -246 -50 -344 -17 -76 -65
-236 -76 -255 -2 -4 -48 4 -101 17 -105 26 -250 48 -375 59 l-78 7 0 279 0
279 340 0 340 0 0 -42z m795 -25 c-31 -306 -148 -598 -333 -831 l-18 -23 -85
52 c-89 55 -285 153 -332 164 -15 4 -30 11 -33 16 -3 5 9 53 26 106 44 135 77
304 92 456 l12 127 339 0 339 0 -7 -67z m-1585 -989 l0 -376 -51 42 c-67 57
-222 238 -292 343 -53 78 -156 263 -157 279 0 23 312 80 468 87 l32 1 0 -376z
m390 345 c125 -21 220 -45 220 -57 -1 -16 -100 -193 -155 -275 -71 -107 -225
-289 -294 -347 l-51 -42 0 377 0 376 83 -6 c45 -4 134 -16 197 -26z m-969
-171 c85 -170 197 -331 335 -484 l83 -91 -77 14 c-256 48 -509 174 -722 358
l-81 70 25 20 c47 38 353 191 388 194 4 1 26 -36 49 -81z m1464 18 c98 -46
255 -135 255 -146 0 -17 -146 -143 -233 -201 -162 -108 -380 -199 -559 -232
l-78 -15 81 90 c136 152 260 331 343 496 l36 71 39 -14 c21 -7 73 -29 116 -49z"/>
</g>
</svg>
