<?xml version="1.0" encoding="utf-8"?>
<!-- Generator: Adobe Illustrator 19.0.0, SVG Export Plug-In . SVG Version: 6.00 Build 0)  -->
<svg version="1.1" id="Camada_1" xmlns="http://www.w3.org/2000/svg" xmlns:xlink="http://www.w3.org/1999/xlink" x="0px" y="0px"
	 viewBox="0 0 500 500" style="enable-background:new 0 0 500 500;" xml:space="preserve">
<g id="XMLID_2_">
	<path id="XMLID_281_" style="fill:#3C4953;" d="M439.4,245.6l-2.7,0.1c-0.1-2.7-0.2-5.5-0.4-8.2l2.7-0.2
		C439.2,240,439.3,242.8,439.4,245.6z M438.5,231.8l-2.7,0.3c-0.3-2.7-0.6-5.4-1-8.1l2.7-0.4C437.9,226.2,438.2,229,438.5,231.8z
		 M436.6,218.1l-2.7,0.5c-0.5-2.7-1-5.4-1.6-8l2.7-0.6C435.5,212.6,436.1,215.3,436.6,218.1z M433.6,204.5l-2.7,0.7
		c-0.7-2.7-1.4-5.3-2.2-7.9l2.6-0.8C432.2,199.2,432.9,201.8,433.6,204.5z M429.7,191.3l-2.6,0.9c-0.9-2.6-1.8-5.2-2.8-7.7l2.6-1
		C427.9,186,428.8,188.6,429.7,191.3z M421.5,170.8c1.2,2.5,2.3,5,3.4,7.6l-2.5,1.1c-1.1-2.5-2.2-5-3.3-7.5L421.5,170.8z
		 M415.1,158.5c1.4,2.4,2.7,4.8,3.9,7.3l-2.5,1.2c-1.2-2.4-2.5-4.8-3.9-7.2L415.1,158.5z M407.9,146.7c1.5,2.3,3,4.6,4.4,7l-2.4,1.4
		c-1.4-2.3-2.9-4.6-4.4-6.9L407.9,146.7z M399.8,135.5c1.7,2.2,3.3,4.4,4.9,6.7l-2.2,1.6c-1.6-2.2-3.2-4.4-4.9-6.6L399.8,135.5z
		 M391,124.9c1.8,2.1,3.7,4.2,5.4,6.3l-2.1,1.7c-1.7-2.1-3.5-4.2-5.3-6.2L391,124.9z M381.4,114.9c2,1.9,3.9,3.9,5.9,5.9l-2,1.9
		c-1.9-2-3.8-3.9-5.8-5.8L381.4,114.9z M371,105.7c2.1,1.8,4.2,3.6,6.3,5.4l-1.8,2c-2-1.8-4.1-3.6-6.2-5.4L371,105.7z M360.1,97.2
		c2.3,1.6,4.5,3.3,6.7,5l-1.7,2.2c-2.1-1.7-4.3-3.3-6.6-4.9L360.1,97.2z M348.5,89.6c2.4,1.4,4.7,2.9,7,4.5l-1.5,2.3
		c-2.3-1.5-4.6-3-6.9-4.4L348.5,89.6z M336.4,82.8c2.5,1.3,4.9,2.6,7.3,4l-1.4,2.4c-2.4-1.4-4.8-2.7-7.2-3.9L336.4,82.8z
		 M105.1,129.3l2.1,1.8c-1.8,2.1-3.5,4.2-5.1,6.4l0,0l-2.2-1.7C101.6,133.6,103.3,131.5,105.1,129.3z M96.6,140.2l2.2,1.6
		c-1.6,2.2-3.2,4.5-4.7,6.7l-2.3-1.5C93.4,144.8,95,142.5,96.6,140.2z M88.9,151.7l2.3,1.5c-1.4,2.3-2.8,4.7-4.2,7.1l0,0l-2.4-1.3
		C86,156.5,87.4,154.1,88.9,151.7z M82,163.8l2.4,1.3c-1.3,2.4-2.5,4.9-3.6,7.3l-2.5-1.2C79.5,168.7,80.7,166.2,82,163.8z M76,176.3
		l2.5,1.1c-1.1,2.5-2.1,5-3.1,7.6l-2.6-1C73.9,181.4,74.9,178.8,76,176.3z M71,189.2l2.6,0.9c-0.9,2.6-1.7,5.2-2.5,7.8l-2.6-0.8
		C69.2,194.5,70.1,191.8,71,189.2z M66.9,202.4l2.7,0.7c-0.7,2.6-1.3,5.3-1.9,8l-2.7-0.6C65.5,207.8,66.2,205.1,66.9,202.4z
		 M63.8,215.9l2.7,0.5c-0.5,2.7-1,5.4-1.4,8.1l-2.7-0.4C62.9,221.4,63.3,218.7,63.8,215.9z M61.7,229.6l2.7,0.3
		c-0.3,2.7-0.6,5.4-0.8,8.1l0,0l-2.7-0.2C61.2,235.1,61.4,232.4,61.7,229.6z M60.5,251.5c0-2.7,0.1-5.4,0.2-8.1l2.7,0.1
		c-0.1,2.6-0.2,5.3-0.2,8v0.2l-2.8,0V251.5z M60.6,257.3l2.7-0.1c0.1,2.7,0.2,5.5,0.4,8.2l-2.7,0.2C60.8,262.8,60.7,260,60.6,257.3z
		 M61.5,271.1l2.7-0.3c0.3,2.7,0.6,5.4,1,8.1l-2.7,0.4C62.1,276.6,61.8,273.8,61.5,271.1z M63.4,284.8l2.7-0.5c0.5,2.7,1,5.4,1.6,8
		l-2.7,0.6C64.4,290.2,63.9,287.5,63.4,284.8z M66.3,298.3l2.7-0.7c0.7,2.7,1.4,5.3,2.2,7.9l-2.6,0.8C67.7,303.7,67,301,66.3,298.3z
		 M70.2,311.6l2.6-0.9c0.9,2.6,1.8,5.2,2.8,7.7l0,0l-2.6,1C72,316.8,71.1,314.2,70.2,311.6z M78.4,332.1c-1.2-2.5-2.3-5-3.4-7.6
		l2.5-1.1c1.1,2.5,2.2,5,3.3,7.5v0L78.4,332.1z M84.8,344.4c-1.4-2.4-2.7-4.8-3.9-7.3l2.5-1.2c1.2,2.4,2.5,4.8,3.9,7.2h0L84.8,344.4
		z M92,356.1c-1.5-2.3-3-4.6-4.4-7l2.4-1.4c1.4,2.3,2.9,4.6,4.4,6.9L92,356.1z M100,367.4c-1.7-2.2-3.3-4.4-4.9-6.7l2.2-1.6
		c1.6,2.2,3.2,4.4,4.9,6.6L100,367.4z M108.9,378c-1.8-2.1-3.6-4.2-5.4-6.3l2.1-1.7c1.7,2.1,3.5,4.2,5.3,6.2L108.9,378z
		 M341.5,417.5l-1.3-2.4c2.4-1.3,4.7-2.7,7.1-4.1l0,0l1.4,2.3C346.4,414.8,344,416.1,341.5,417.5z M353.4,410.4l-1.5-2.3
		c2.3-1.5,4.5-3,6.7-4.6l1.6,2.2C358,407.3,355.7,408.9,353.4,410.4z M364.7,402.4l-1.7-2.2c2.2-1.7,4.3-3.4,6.4-5.1v0l1.8,2.1
		C369.1,399,366.9,400.7,364.7,402.4z M375.4,393.6l-1.8-2.1c2-1.8,4.1-3.7,6-5.5l1.9,2C379.5,389.9,377.5,391.8,375.4,393.6z
		 M385.4,384.1l-2-1.9c1.9-1.9,3.8-3.9,5.6-6l2,1.8C389.2,380.1,387.3,382.1,385.4,384.1z M394.7,373.9l-2.1-1.8
		c1.8-2.1,3.5-4.2,5.2-6.4v0l2.2,1.7C398.3,369.6,396.5,371.7,394.7,373.9z M403.3,363l-2.2-1.6c1.6-2.2,3.2-4.4,4.7-6.7l0,0
		l2.3,1.5C406.5,358.5,404.9,360.7,403.3,363z M411,351.5l-2.3-1.5c1.4-2.3,2.8-4.7,4.2-7.1l2.4,1.3
		C413.9,346.7,412.5,349.1,411,351.5z M417.9,339.5l-2.4-1.3c1.3-2.4,2.5-4.9,3.6-7.3l2.5,1.2C420.4,334.5,419.2,337,417.9,339.5z
		 M423.9,326.9l-2.5-1.1c1.1-2.5,2.1-5,3.1-7.6l2.6,1C426.1,321.8,425,324.4,423.9,326.9z M429,314l-2.6-0.9
		c0.9-2.6,1.7-5.2,2.5-7.8l2.6,0.8C430.7,308.8,429.9,311.4,429,314z M433,300.8l-2.7-0.7c0.7-2.6,1.4-5.3,1.9-7.9l0,0l2.7,0.6
		C434.4,295.4,433.8,298.1,433,300.8z M436.1,287.3l-2.7-0.5c0.5-2.7,1-5.4,1.4-8.1l2.7,0.4C437.1,281.9,436.7,284.6,436.1,287.3z
		 M438.2,273.6l-2.7-0.3c0.3-2.7,0.6-5.4,0.8-8.1l2.7,0.2C438.8,268.1,438.5,270.9,438.2,273.6z M439.3,259.8l-2.7-0.1
		c0.1-2.7,0.2-5.4,0.2-8.2l0-0.4h0l2.8,0l0,0.4C439.5,254.3,439.4,257.1,439.3,259.8z M458.7,175.5c-4.3-11.9-20.4-18.3-26.7-29.1
		c-6.3-10.9-3.9-28-11.9-37.6c-8.1-9.6-25.4-10.2-35-18.3c-9.6-8.1-13.1-25-24.1-31.3c-10.8-6.3-27.2-0.9-39.1-5.2
		c-11.7-4.3-20.8-19-33.3-21.2c-12.2-2.1-25.8,8.5-38.6,8.5s-26.4-10.7-38.6-8.5c-12.5,2.2-21.6,16.9-33.3,21.2
		c-11.9,4.3-28.3-1-39.1,5.2c-10.9,6.3-14.4,23.3-24.1,31.3c-9.6,8.1-26.9,8.6-35,18.3c-8.1,9.6-5.6,26.7-11.9,37.6
		c-6.3,10.8-22.3,17.2-26.7,29.1C37,187.2,45.2,202.5,43,215c-2.1,12.2-15,23.7-15,36.5c0,12.8,12.9,24.3,15,36.5
		c2.2,12.5-6,27.8-1.7,39.5c4.3,11.9,20.4,18.3,26.7,29.1c6.3,10.9,3.9,28,11.9,37.6c8.1,9.6,25.4,10.2,35,18.3
		c9.6,8.1,13.1,25,24.1,31.3c10.8,6.3,27.2,0.9,39.1,5.2c11.7,4.3,20.8,19,33.3,21.2c12.2,2.1,25.8-8.5,38.6-8.5s26.4,10.7,38.6,8.5
		c12.5-2.2,21.6-16.9,33.3-21.2c11.9-4.3,28.3,1,39.1-5.2c10.9-6.3,14.4-23.3,24.1-31.3c9.6-8.1,26.9-8.6,35-18.3
		c8.1-9.6,5.6-26.7,11.9-37.6c6.3-10.8,22.3-17.2,26.7-29.1c4.3-11.7-3.9-26.9-1.7-39.5c2.1-12.2,15-23.7,15-36.5
		c0-12.8-12.9-24.3-15-36.5C454.8,202.5,463,187.2,458.7,175.5z M323.9,76.9c2.6,1.1,5.1,2.2,7.6,3.4l-1.2,2.5
		c-2.5-1.2-5-2.3-7.5-3.4L323.9,76.9z M310.9,72c2.6,0.9,5.2,1.8,7.8,2.8l-1,2.6c-2.5-1-5.1-1.9-7.7-2.8L310.9,72z M296.9,70.7
		l0.7-2.7c2.7,0.7,5.4,1.4,8,2.3l-0.8,2.6C302.2,72.1,299.6,71.4,296.9,70.7L296.9,70.7z M284.1,65.1c2.7,0.5,5.4,1.1,8.1,1.7
		l-0.6,2.7c-2.7-0.6-5.3-1.2-8-1.6L284.1,65.1z M270.4,63.1c2.8,0.3,5.5,0.7,8.2,1.1l-0.4,2.7c-2.7-0.4-5.4-0.8-8.1-1L270.4,63.1z
		 M256.5,64.9l0.1-2.7c2.8,0.1,5.5,0.3,8.3,0.5l-0.2,2.7C262,65.1,259.2,65,256.5,64.9L256.5,64.9z M250,62c0.4,0,0.7,0,1.1,0l0,2.8
		c-0.3,0-0.7,0-1,0c-2.4,0-4.8,0-7.1,0.1l0,0l-0.1-2.7C245.2,62.1,247.6,62,250,62z M237.2,62.4l0.2,2.7c-2.7,0.2-5.5,0.4-8.2,0.7
		l-0.3-2.7C231.7,62.9,234.5,62.6,237.2,62.4z M223.5,63.9l0.4,2.7c-2.7,0.4-5.4,0.8-8.1,1.3v0l-0.5-2.7
		C218,64.7,220.7,64.2,223.5,63.9z M209.8,66.3l0.6,2.7c-2.7,0.6-5.3,1.2-8,1.9v0l-0.7-2.7C204.4,67.5,207.1,66.9,209.8,66.3z
		 M196.4,69.7l0.8,2.6c-2.6,0.8-5.2,1.6-7.8,2.5v0l-0.9-2.6C191.1,71.3,193.8,70.5,196.4,69.7z M183.3,74.1l1,2.6
		c-2.6,1-5.1,2-7.6,3l-1.1-2.5C178.2,76.1,180.7,75.1,183.3,74.1z M170.6,79.4l1.2,2.5c-2.5,1.1-4.9,2.3-7.3,3.6l-1.3-2.4
		C165.6,81.8,168.1,80.6,170.6,79.4z M158.3,85.7l1.3,2.4c-2.4,1.3-4.7,2.7-7.1,4.1v0l-1.4-2.3C153.5,88.4,155.8,87,158.3,85.7z
		 M146.4,92.8l1.5,2.3c-2.3,1.5-4.5,3-6.7,4.6l-1.6-2.2C141.8,95.9,144.1,94.3,146.4,92.8z M135.1,100.8l1.7,2.2
		c-2.2,1.7-4.3,3.4-6.4,5.1v0l-1.8-2.1C130.8,104.2,132.9,102.5,135.1,100.8z M124.5,109.6l1.8,2.1c-2,1.8-4,3.7-6,5.6l0,0l-1.9-2
		C120.4,113.3,122.4,111.4,124.5,109.6z M114.4,119.1l2,1.9c-1.9,2-3.8,3.9-5.6,6l-2-1.8C110.6,123.1,112.5,121.1,114.4,119.1z
		 M118.5,388c-2-1.9-3.9-3.9-5.9-5.9l2-1.9c1.9,2,3.8,3.9,5.8,5.8L118.5,388z M128.8,397.2c-2.1-1.8-4.2-3.6-6.3-5.5l1.9-2
		c2,1.8,4.1,3.6,6.2,5.4L128.8,397.2z M139.8,405.7c-2.3-1.6-4.5-3.3-6.6-5l1.7-2.2c2.1,1.7,4.3,3.3,6.6,4.9L139.8,405.7z
		 M151.3,413.3c-2.4-1.4-4.7-2.9-7-4.5l1.5-2.3c2.3,1.5,4.6,3,6.9,4.4L151.3,413.3z M163.4,420.1c-2.5-1.3-4.9-2.6-7.3-4l1.4-2.4
		c2.4,1.4,4.8,2.7,7.2,3.9L163.4,420.1z M175.9,426c-2.6-1.1-5.1-2.2-7.6-3.4l1.2-2.5c2.5,1.2,5,2.3,7.5,3.4L175.9,426z M188.9,431
		c-2.6-0.9-5.2-1.8-7.8-2.9l1-2.6c2.5,1,5.1,1.9,7.7,2.8L188.9,431z M202.2,434.9c-2.7-0.7-5.4-1.5-8-2.3l0.8-2.6
		c2.6,0.8,5.2,1.5,7.9,2.2L202.2,434.9z M215.7,437.9c-2.7-0.5-5.4-1.1-8.1-1.7l0.6-2.7c2.7,0.6,5.3,1.2,8,1.6L215.7,437.9z
		 M229.7,437.2l-0.3,2.7c-2.8-0.3-5.5-0.7-8.2-1.1l0.4-2.7C224.2,436.5,227,436.9,229.7,437.2L229.7,437.2z M243.2,440.9
		c-2.8-0.1-5.5-0.3-8.3-0.5l0.2-2.7c2.7,0.2,5.4,0.4,8.2,0.5L243.2,440.9z M250,441c-0.4,0-0.9,0-1.3,0l0-2.8c0.4,0,0.8,0,1.3,0
		c2.3,0,4.6,0,6.9-0.1h0l0.1,2.7C254.7,441,252.4,441,250,441z M262.5,440.6l-0.2-2.7c2.7-0.2,5.5-0.4,8.2-0.7l0.3,2.7
		C268.1,440.2,265.3,440.4,262.5,440.6z M276.3,439.2l-0.4-2.7c2.7-0.4,5.4-0.8,8.1-1.3v0l0.5,2.7
		C281.8,438.4,279.1,438.8,276.3,439.2z M289.9,436.8l-0.6-2.7c2.7-0.6,5.3-1.2,8-1.9l0,0l0.7,2.7
		C295.4,435.6,292.7,436.2,289.9,436.8z M303.4,433.4l-0.8-2.6c2.6-0.8,5.2-1.6,7.8-2.5h0l0.9,2.6
		C308.7,431.8,306,432.6,303.4,433.4z M316.5,429l-1-2.6c2.6-1,5.1-2,7.6-3l1.1,2.5C321.6,427,319.1,428.1,316.5,429z M329.2,423.7
		l-1.2-2.5c2.5-1.1,4.9-2.3,7.3-3.6l1.3,2.4C334.2,421.3,331.7,422.6,329.2,423.7z M250,427.6c-97.3,0-176.1-78.9-176.1-176.1
		S152.7,75.4,250,75.4s176.1,78.9,176.1,176.1S347.3,427.6,250,427.6z"/>
	<path id="XMLID_263_" style="fill:#B43A2C;" d="M375,361.2c25.9-29.2,41.7-67.5,41.7-109.5c0-43.7-17.1-83.4-44.8-113v0
		c0,0-0.1,0-0.1-0.1c-28.9-30.8-69.5-50.4-114.6-52l0,0l-3.2-0.1c-0.8,0-1.7-0.1-2.5-0.1c-0.8,0-1.7,0-2.5,0.1l-3.2,0.1l0,0
		c-45.1,1.5-85.6,21.2-114.6,52c0,0-0.1,0-0.1,0.1c0,0,0,0,0,0c-27.8,29.6-44.8,69.3-44.8,113c0,42,15.8,80.3,41.7,109.5
		c0,0.1,0,0.1,0.1,0.2c0.1,0.1,0.3,0.2,0.4,0.3c29.1,32.5,70.8,53.5,117.4,55.1l0,0l3.2,0.1c0.8,0,1.7,0.1,2.5,0.1
		c0.8,0,1.7,0,2.5-0.1l3.2-0.1l0,0c46.6-1.6,88.4-22.6,117.5-55.2c0.1-0.1,0.2-0.1,0.3-0.2C375,361.3,375,361.2,375,361.2z
		 M97.8,257.4h68.4c0.6,24.1,5.4,47.6,13.8,69.6c-16.2,5.9-31.7,13.7-46.2,23.5C112.4,325.1,99.1,292.7,97.8,257.4z M136.8,149.3
		c14.2,9.2,29.3,16.6,45,22.1c-9.6,23.4-15,48.6-15.7,74.6H97.8C99.2,208.9,113.7,175.2,136.8,149.3z M405.1,246h-68.4
		c-0.7-26-6-51.2-15.7-74.6c15.7-5.5,30.8-12.9,45-22.1C389.3,175.2,403.8,208.9,405.1,246z M245.8,171.7
		c-16.5-0.5-32.6-2.9-48.3-7.3c11.5-23.7,27.9-45.1,48.3-62.9V171.7z M245.8,183.1V246h-68.2c0.7-24.8,5.9-48.8,15.2-71.1
		C209.9,179.9,227.7,182.6,245.8,183.1z M257.2,183.1c18.1-0.5,35.9-3.2,53-8.2c9.3,22.3,14.5,46.3,15.2,71.1h-68.2V183.1z
		 M257.2,171.7v-70.2c20.4,17.8,36.7,39.2,48.3,62.9C289.8,168.8,273.6,171.2,257.2,171.7z M316.5,160.9
		c-10.9-22.9-26.1-43.8-44.9-61.7c33.4,4.4,63.4,19.4,86.5,41.7C344.9,149.2,331,155.9,316.5,160.9z M186.5,160.9
		c-14.5-5-28.4-11.7-41.6-20c23.1-22.2,53.1-37.3,86.5-41.7C212.6,117.1,197.4,138,186.5,160.9z M177.6,257.4h68.2v57.2
		c-18.8,0.5-37.3,3.4-55,8.8C182.7,302.5,178.2,280.3,177.6,257.4z M245.8,325.9v75.9c-21.8-19.1-39-42.2-50.6-67.9
		C211.5,329.1,228.5,326.4,245.8,325.9z M257.2,401.8v-75.9c17.3,0.5,34.3,3.2,50.6,8C296.1,359.6,279,382.8,257.2,401.8z
		 M257.2,314.5v-57.2h68.2c-0.6,22.9-5.1,45.1-13.2,66C294.5,318,276,315,257.2,314.5z M336.8,257.4h68.4
		c-1.3,35.4-14.6,67.7-35.9,93.1c-14.5-9.8-30-17.7-46.2-23.5C331.4,305,336.1,281.5,336.8,257.4z M141.5,359
		c13.5-9,27.8-16.2,42.8-21.5c11.1,24.8,27,47.5,47.1,66.6C196.4,399.5,165,383.1,141.5,359z M271.5,404.1
		c20.1-19.2,36-41.8,47.1-66.6c15,5.4,29.3,12.6,42.8,21.5C337.9,383.1,306.6,399.5,271.5,404.1z"/>
</g>
</svg>
