<?xml version="1.0" encoding="utf-8"?>
<!-- Generator: Adobe Illustrator 19.0.0, SVG Export Plug-In . SVG Version: 6.00 Build 0)  -->
<svg version="1.1" id="Camada_1" xmlns="http://www.w3.org/2000/svg" xmlns:xlink="http://www.w3.org/1999/xlink" x="0px" y="0px"
	 viewBox="0 0 500 500" style="enable-background:new 0 0 500 500;" xml:space="preserve">
<g id="XMLID_1_">
	<path id="XMLID_64_" style="fill:#3C4953;" d="M393.4,102.4c2.1,2,4.2,4.1,6.2,6.2l-2.1,2c-2-2.1-4-4.1-6.1-6.1L393.4,102.4z
		 M382.5,92.7c2.2,1.9,4.5,3.8,6.6,5.7l-1.9,2.1c-2.1-1.9-4.3-3.8-6.5-5.7L382.5,92.7z M370.9,83.8c2.4,1.7,4.7,3.5,7,5.3l-1.8,2.3
		c-2.3-1.8-4.6-3.5-6.9-5.2L370.9,83.8z M358.8,75.7c2.5,1.5,5,3.1,7.4,4.7l-1.6,2.4c-2.4-1.6-4.8-3.2-7.3-4.7L358.8,75.7z
		 M346,68.6c2.6,1.3,5.2,2.7,7.7,4.2l-1.4,2.5c-2.5-1.4-5-2.8-7.6-4.1L346,68.6z M332.8,62.4c2.7,1.1,5.4,2.3,8,3.6l-1.2,2.6
		c-2.6-1.2-5.2-2.4-7.9-3.5L332.8,62.4z M319.1,57.2c2.8,0.9,5.5,1.9,8.3,3l-1.1,2.7c-2.7-1-5.4-2-8.1-3L319.1,57.2z M304.3,55.8
		l0.7-2.8c2.8,0.7,5.6,1.5,8.4,2.4l-0.9,2.8C309.9,57.3,307.1,56.5,304.3,55.8L304.3,55.8z M290.8,49.9c2.9,0.5,5.7,1.1,8.6,1.8
		l-0.6,2.8c-2.8-0.6-5.6-1.2-8.5-1.7L290.8,49.9z M276.4,47.8c2.9,0.3,5.8,0.7,8.7,1.1l-0.4,2.9c-2.8-0.4-5.7-0.8-8.6-1.1
		L276.4,47.8z M261.7,49.6l0.1-2.9c2.9,0.1,5.8,0.3,8.7,0.5l-0.2,2.9C267.5,49.9,264.6,49.7,261.7,49.6L261.7,49.6z M254.8,46.6
		c0.4,0,0.7,0,1.1,0l0,2.9c-0.4,0-0.7,0-1.1,0c-2.5,0-5,0-7.5,0.1l0,0l-0.1-2.9C249.7,46.7,252.3,46.6,254.8,46.6z M241.4,47.1
		l0.2,2.9c-2.9,0.2-5.7,0.4-8.6,0.8l-0.3-2.9C235.5,47.5,238.5,47.3,241.4,47.1z M226.9,48.6l0.4,2.9c-2.9,0.4-5.7,0.9-8.5,1.4v0
		l-0.5-2.9C221.1,49.4,224,49,226.9,48.6z M212.5,51.1l0.6,2.8c-2.8,0.6-5.6,1.3-8.4,2v0l-0.7-2.8C206.8,52.4,209.6,51.7,212.5,51.1
		z M198.3,54.7l0.8,2.8c-2.8,0.8-5.5,1.7-8.2,2.6v0l-0.9-2.7C192.8,56.4,195.5,55.6,198.3,54.7z M184.5,59.4l1,2.7
		c-2.7,1-5.4,2.1-8,3.2l-1.1-2.7C179.1,61.5,181.8,60.4,184.5,59.4z M171.1,65l1.2,2.6c-2.6,1.2-5.2,2.5-7.7,3.8l-1.3-2.6
		C165.8,67.5,168.4,66.2,171.1,65z M158.1,71.6l1.4,2.5c-2.5,1.4-5,2.8-7.4,4.3v0l-1.5-2.5C153,74.5,155.5,73,158.1,71.6z
		 M145.6,79.1l1.6,2.4c-2.4,1.6-4.8,3.2-7.1,4.9l-1.7-2.4C140.8,82.3,143.2,80.7,145.6,79.1z M133.7,87.5l1.8,2.3
		c-2.3,1.7-4.5,3.5-6.7,5.4v0l-1.9-2.2C129.1,91.1,131.4,89.3,133.7,87.5z M122.4,96.8l1.9,2.2c-2.2,1.9-4.3,3.9-6.3,5.9l0,0l-2-2.1
		C118.1,100.7,120.2,98.7,122.4,96.8z M111.9,106.8l2.1,2c-2,2.1-4,4.2-5.9,6.3l-2.2-1.9C107.8,111.1,109.8,108.9,111.9,106.8z
		 M88.2,356.9c-1.6-2.4-3.2-4.9-4.7-7.4L86,348c1.5,2.5,3,4.9,4.6,7.3L88.2,356.9z M96.7,368.7c-1.8-2.3-3.5-4.7-5.2-7l2.4-1.7
		c1.7,2.4,3.4,4.7,5.1,6.9L96.7,368.7z M106,379.9c-1.9-2.2-3.8-4.4-5.7-6.6l2.2-1.8c1.8,2.2,3.7,4.4,5.6,6.5L106,379.9z
		 M116.1,390.4c-2.1-2-4.2-4.1-6.2-6.2l2.1-2c2,2.1,4,4.1,6.1,6.1L116.1,390.4z M127,400.2c-2.2-1.9-4.4-3.8-6.6-5.8l2-2.1
		c2.1,1.9,4.3,3.8,6.5,5.7L127,400.2z M138.6,409.1c-2.4-1.7-4.7-3.5-7-5.3l1.8-2.3c2.3,1.8,4.6,3.5,6.9,5.2L138.6,409.1z
		 M150.7,417.2c-2.5-1.5-5-3.1-7.4-4.7l1.6-2.4c2.4,1.6,4.8,3.2,7.3,4.7L150.7,417.2z M163.5,424.3c-2.6-1.3-5.2-2.7-7.7-4.2
		l1.4-2.5c2.5,1.4,5,2.8,7.6,4.1L163.5,424.3z M176.7,430.6c-2.7-1.1-5.4-2.4-8-3.6l1.3-2.6c2.6,1.2,5.2,2.4,7.9,3.6L176.7,430.6z
		 M190.4,435.8c-2.8-0.9-5.5-2-8.2-3l1.1-2.7c2.7,1,5.4,2,8.1,3L190.4,435.8z M204.4,440c-2.8-0.7-5.6-1.5-8.4-2.4l0.9-2.8
		c2.7,0.8,5.5,1.6,8.3,2.4L204.4,440z M218.6,443.1c-2.9-0.5-5.7-1.1-8.6-1.8l0.6-2.8c2.8,0.6,5.6,1.2,8.5,1.7L218.6,443.1z
		 M233.4,442.3l-0.3,2.9c-2.9-0.3-5.8-0.7-8.7-1.1l0.4-2.9C227.7,441.7,230.5,442,233.4,442.3L233.4,442.3z M247.7,446.3
		c-2.9-0.1-5.8-0.3-8.7-0.5l0.2-2.9c2.9,0.2,5.7,0.4,8.6,0.5L247.7,446.3z M254.8,446.4c-0.5,0-0.9,0-1.4,0l0-2.9c0.4,0,0.9,0,1.3,0
		c2.4,0,4.9,0,7.3-0.1h0l0.1,2.9C259.8,446.4,257.3,446.4,254.8,446.4z M268.1,446l-0.2-2.9c2.9-0.2,5.8-0.4,8.6-0.8l0.3,2.9
		C273.9,445.5,271,445.8,268.1,446z M282.6,444.5l-0.4-2.9c2.9-0.4,5.7-0.9,8.5-1.4v0l0.5,2.9C288.4,443.6,285.5,444.1,282.6,444.5z
		 M297,441.9l-0.6-2.8c2.8-0.6,5.6-1.3,8.4-2l0,0l0.7,2.8C302.7,440.7,299.8,441.3,297,441.9z M311.1,438.4l-0.8-2.8
		c2.8-0.8,5.5-1.7,8.2-2.6h0l0.9,2.7C316.7,436.7,313.9,437.5,311.1,438.4z M325,433.7l-1-2.7c2.7-1,5.4-2.1,8-3.2l1.1,2.7
		C330.4,431.6,327.7,432.7,325,433.7z M338.4,428.1l-1.2-2.6c2.6-1.2,5.2-2.5,7.7-3.8l1.3,2.6C343.7,425.6,341.1,426.9,338.4,428.1z
		 M351.4,421.6L350,419c2.5-1.4,5-2.8,7.5-4.3l0,0l1.5,2.5C356.5,418.7,354,420.2,351.4,421.6z M363.9,414.1l-1.6-2.4
		c2.4-1.6,4.8-3.2,7.1-4.9l1.7,2.4C368.7,410.8,366.3,412.5,363.9,414.1z M375.8,405.7l-1.8-2.3c2.3-1.7,4.5-3.5,6.7-5.4v0l1.9,2.2
		C380.4,402.1,378.1,403.9,375.8,405.7z M387.1,396.4l-1.9-2.2c2.2-1.9,4.3-3.9,6.3-5.9l2,2.1C391.4,392.5,389.3,394.5,387.1,396.4z
		 M397.7,386.4l-2.1-2c2-2.1,4-4.2,5.9-6.3l2.2,1.9C401.7,382.1,399.7,384.3,397.7,386.4z M407.5,375.6l-2.2-1.9
		c1.9-2.2,3.7-4.4,5.4-6.7v0l2.3,1.8C411.2,371.1,409.4,373.3,407.5,375.6z M416.5,364.1l-2.3-1.7c1.7-2.3,3.3-4.7,4.9-7.1l0,0
		l2.4,1.6C419.9,359.3,418.2,361.7,416.5,364.1z M424.7,352l-2.5-1.5c1.5-2.4,3-4.9,4.4-7.4l2.5,1.4
		C427.7,347,426.2,349.5,424.7,352z M475,166.4c-4.6-12.6-21.5-19.3-28.1-30.7c-6.7-11.5-4.1-29.6-12.6-39.7
		c-8.5-10.2-26.8-10.7-36.9-19.3c-10.1-8.5-13.8-26.4-25.4-33c-11.4-6.6-28.7-0.9-41.3-5.5c-12.3-4.5-21.9-20-35.2-22.3
		c-12.9-2.3-27.2,9-40.7,9c-13.5,0-27.8-11.3-40.7-9c-13.2,2.3-22.8,17.8-35.2,22.3c-12.6,4.6-29.9-1.1-41.3,5.5
		c-11.5,6.7-15.2,24.5-25.4,33c-10.2,8.5-28.4,9.1-36.9,19.3c-8.5,10.1-5.9,28.2-12.6,39.7c-6.6,11.4-23.6,18.2-28.1,30.7
		c-4.5,12.3,4.1,28.4,1.8,41.6c-2.3,12.9-15.9,25-15.9,38.5c0,13.5,13.6,25.7,15.9,38.5c2.3,13.2-6.3,29.3-1.8,41.6
		c4.6,12.6,21.5,19.3,28.1,30.7c6.7,11.5,4.1,29.6,12.6,39.7c8.5,10.2,26.8,10.7,36.9,19.3c10.1,8.5,13.8,26.4,25.4,33
		c11.4,6.6,28.7,0.9,41.3,5.5c12.3,4.5,21.9,20,35.2,22.3c12.9,2.3,27.2-9,40.7-9c13.5,0,27.8,11.3,40.7,9
		c13.2-2.3,22.8-17.8,35.2-22.3c12.6-4.6,29.9,1.1,41.3-5.5c11.5-6.7,15.2-24.5,25.4-33c10.2-8.5,28.4-9.1,36.9-19.3
		c8.5-10.1,5.9-28.2,12.6-39.7c6.6-11.4,23.6-18.2,28.1-30.7c4.5-12.3-4.1-28.4-1.8-41.6c2.3-12.9,15.9-25,15.9-38.5
		s-13.6-25.7-15.9-38.5C470.9,194.8,479.5,178.7,475,166.4z M454.6,240.2l-2.9,0.1c-0.1-2.9-0.2-5.8-0.5-8.6l2.9-0.2
		C454.4,234.4,454.5,237.3,454.6,240.2z M453.7,225.7l-2.9,0.3c-0.3-2.9-0.7-5.7-1.1-8.6l2.9-0.4C453,219.9,453.4,222.8,453.7,225.7
		z M451.6,211.2l-2.9,0.5c-0.5-2.8-1.1-5.7-1.7-8.5l2.8-0.6C450.5,205.5,451.1,208.3,451.6,211.2z M448.5,197l-2.8,0.7
		c-0.7-2.8-1.5-5.6-2.3-8.3l2.8-0.8C447,191.3,447.8,194.1,448.5,197z M444.4,182.9l-2.8,0.9c-0.9-2.7-1.9-5.4-2.9-8.1l2.7-1
		C442.5,177.4,443.5,180.2,444.4,182.9z M435.7,161.3c1.2,2.6,2.4,5.3,3.6,8l-2.7,1.1c-1.1-2.7-2.3-5.3-3.5-7.9L435.7,161.3z
		 M429,148.4c1.4,2.5,2.8,5.1,4.1,7.7l-2.6,1.3c-1.3-2.6-2.7-5.1-4.1-7.6L429,148.4z M421.4,136c1.6,2.4,3.2,4.9,4.7,7.4l-2.5,1.5
		c-1.5-2.5-3-4.9-4.6-7.3L421.4,136z M412.9,124.1c1.8,2.3,3.5,4.6,5.2,7l-2.4,1.7c-1.7-2.3-3.4-4.7-5.1-6.9L412.9,124.1z
		 M403.5,112.9c2,2.2,3.9,4.4,5.7,6.6l-2.2,1.8c-1.8-2.2-3.7-4.4-5.6-6.5L403.5,112.9z M102,117.6l2.2,1.9c-1.9,2.2-3.7,4.4-5.4,6.7
		l0,0l-2.3-1.8C98.3,122.2,100.2,119.9,102,117.6z M93,129.1l2.3,1.7c-1.7,2.3-3.3,4.7-4.9,7.1l-2.4-1.6
		C89.6,133.9,91.3,131.5,93,129.1z M84.9,141.3l2.5,1.5c-1.5,2.4-3,4.9-4.4,7.4l0,0l-2.5-1.4C81.9,146.3,83.3,143.8,84.9,141.3z
		 M77.6,154l2.6,1.3c-1.3,2.6-2.6,5.1-3.8,7.7l-2.6-1.2C75,159.2,76.3,156.6,77.6,154z M71.3,167.2l2.7,1.2c-1.1,2.6-2.2,5.3-3.3,8
		l-2.7-1C69.1,172.6,70.2,169.8,71.3,167.2z M66,180.8l2.7,1c-0.9,2.7-1.8,5.4-2.7,8.2l-2.8-0.8C64.2,186.3,65.1,183.6,66,180.8z
		 M61.7,194.8l2.8,0.7c-0.7,2.8-1.4,5.6-2,8.4l-2.8-0.6C60.3,200.4,61,197.6,61.7,194.8z M58.5,209l2.9,0.5c-0.5,2.8-1,5.7-1.4,8.5
		l-2.9-0.4C57.5,214.7,57.9,211.8,58.5,209z M56.3,223.4l2.9,0.3c-0.3,2.8-0.6,5.7-0.8,8.6l0,0l-2.9-0.2
		C55.7,229.2,55.9,226.3,56.3,223.4z M55,246.5c0-2.9,0.1-5.7,0.2-8.5l2.9,0.1c-0.1,2.8-0.2,5.6-0.2,8.4v0.2l-2.9,0V246.5z
		 M55.1,252.6l2.9-0.1c0.1,2.9,0.2,5.8,0.4,8.6l-2.9,0.2C55.3,258.4,55.1,255.5,55.1,252.6z M56,267.1l2.9-0.3
		c0.3,2.9,0.7,5.7,1.1,8.6l-2.9,0.4C56.7,272.9,56.3,270,56,267.1z M58,281.6l2.9-0.5c0.5,2.8,1.1,5.7,1.7,8.5l-2.8,0.6
		C59.1,287.3,58.5,284.5,58,281.6z M61.1,295.9l2.8-0.7c0.7,2.8,1.5,5.6,2.3,8.3l-2.8,0.8C62.6,301.5,61.8,298.7,61.1,295.9z
		 M65.2,309.9l2.8-0.9c0.9,2.7,1.9,5.4,2.9,8.1l0,0l-2.7,1C67.1,315.4,66.1,312.6,65.2,309.9z M73.9,331.5c-1.2-2.6-2.4-5.3-3.5-8
		l2.7-1.1c1.1,2.7,2.3,5.3,3.5,7.9v0L73.9,331.5z M80.6,344.4c-1.4-2.5-2.8-5.1-4.1-7.7l2.6-1.3c1.3,2.6,2.7,5.1,4.1,7.6h0
		L80.6,344.4z M254.8,432.3c-102.6,0-185.8-83.2-185.8-185.8S152.2,60.7,254.8,60.7s185.8,83.2,185.8,185.8S357.4,432.3,254.8,432.3
		z M432,339.3l-2.6-1.3c1.3-2.5,2.6-5.1,3.8-7.7l2.6,1.2C434.6,334.1,433.3,336.7,432,339.3z M438.3,326.1l-2.7-1.2
		c1.1-2.6,2.2-5.3,3.3-8l2.7,1C440.5,320.7,439.4,323.4,438.3,326.1z M443.6,312.4l-2.7-1c0.9-2.7,1.8-5.5,2.7-8.2l2.8,0.8
		C445.5,306.9,444.6,309.7,443.6,312.4z M447.9,298.5l-2.8-0.8c0.7-2.8,1.4-5.6,2.1-8.4l0,0l2.8,0.6
		C449.4,292.8,448.7,295.7,447.9,298.5z M451.2,284.2l-2.9-0.5c0.5-2.8,1-5.7,1.4-8.5l2.9,0.4C452.2,278.5,451.7,281.4,451.2,284.2z
		 M453.4,269.8l-2.9-0.3c0.3-2.8,0.6-5.7,0.8-8.6l2.9,0.2C454,264,453.7,266.9,453.4,269.8z M454.5,255.3l-2.9-0.1
		c0.1-2.9,0.2-5.7,0.2-8.6l0-0.4h0l2.9,0l0,0.4C454.7,249.4,454.7,252.4,454.5,255.3z"/>
	<polygon id="XMLID_63_" style="fill:#B43A2C;" points="95.5,170.2 99.5,166.2 95.5,162.1 90.7,162.1 94.8,166.2 90.7,170.2 	"/>
	<polygon id="XMLID_62_" style="fill:#B43A2C;" points="105.7,170.2 109.7,166.2 105.7,162.1 100.9,162.1 105,166.2 100.9,170.2 	
		"/>
	<polygon id="XMLID_61_" style="fill:#B43A2C;" points="115.9,170.2 120,166.2 115.9,162.1 111.1,162.1 115.2,166.2 111.1,170.2 	
		"/>
	<polygon id="XMLID_60_" style="fill:#B43A2C;" points="121.3,162.1 125.4,166.2 121.3,170.2 126.1,170.2 130.2,166.2 126.1,162.1 	
		"/>
	<polygon id="XMLID_59_" style="fill:#B43A2C;" points="131.5,162.1 135.6,166.2 131.5,170.2 136.3,170.2 140.4,166.2 136.3,162.1 	
		"/>
	<polygon id="XMLID_58_" style="fill:#B43A2C;" points="146.5,170.2 150.6,166.2 146.5,162.1 141.8,162.1 145.8,166.2 141.8,170.2 	
		"/>
	<polygon id="XMLID_57_" style="fill:#B43A2C;" points="156.7,170.2 160.8,166.2 156.7,162.1 152,162.1 156,166.2 152,170.2 	"/>
	<polygon id="XMLID_56_" style="fill:#B43A2C;" points="166.9,170.2 171,166.2 166.9,162.1 162.2,162.1 166.3,166.2 162.2,170.2 	
		"/>
	<polygon id="XMLID_55_" style="fill:#B43A2C;" points="172.4,162.1 176.5,166.2 172.4,170.2 177.1,170.2 181.2,166.2 177.1,162.1 	
		"/>
	<polygon id="XMLID_54_" style="fill:#B43A2C;" points="187.4,170.2 191.4,166.2 187.4,162.1 182.6,162.1 186.7,166.2 182.6,170.2 	
		"/>
	<polygon id="XMLID_53_" style="fill:#B43A2C;" points="90.7,322.8 94.8,326.9 90.7,330.9 95.5,330.9 99.5,326.9 95.5,322.8 	"/>
	<polygon id="XMLID_52_" style="fill:#B43A2C;" points="100.9,322.8 105,326.9 100.9,330.9 105.7,330.9 109.7,326.9 105.7,322.8 	
		"/>
	<polygon id="XMLID_51_" style="fill:#B43A2C;" points="111.1,322.8 115.2,326.9 111.1,330.9 115.9,330.9 120,326.9 115.9,322.8 	
		"/>
	<polygon id="XMLID_50_" style="fill:#B43A2C;" points="121.3,322.8 125.4,326.9 121.3,330.9 126.1,330.9 130.2,326.9 126.1,322.8 	
		"/>
	<polygon id="XMLID_49_" style="fill:#B43A2C;" points="131.5,322.8 135.6,326.9 131.5,330.9 136.3,330.9 140.4,326.9 136.3,322.8 	
		"/>
	<polygon id="XMLID_48_" style="fill:#B43A2C;" points="141.8,322.8 145.8,326.9 141.8,330.9 146.5,330.9 150.6,326.9 146.5,322.8 	
		"/>
	<polygon id="XMLID_47_" style="fill:#B43A2C;" points="152,322.8 156,326.9 152,330.9 156.7,330.9 160.8,326.9 156.7,322.8 	"/>
	<polygon id="XMLID_46_" style="fill:#B43A2C;" points="162.2,322.8 166.3,326.9 162.2,330.9 166.9,330.9 171,326.9 166.9,322.8 	
		"/>
	<polygon id="XMLID_45_" style="fill:#B43A2C;" points="172.4,322.8 176.5,326.9 172.4,330.9 177.1,330.9 181.2,326.9 177.1,322.8 	
		"/>
	<polygon id="XMLID_44_" style="fill:#B43A2C;" points="182.8,322.8 186.9,326.9 182.8,330.9 187.6,330.9 191.7,326.9 187.6,322.8 	
		"/>
	<polygon id="XMLID_43_" style="fill:#B43A2C;" points="419,162.1 414.2,162.1 410.2,166.2 414.2,170.2 419,170.2 414.9,166.2 	"/>
	<polygon id="XMLID_42_" style="fill:#B43A2C;" points="408.8,170.2 404.7,166.2 408.8,162.1 404,162.1 400,166.2 404,170.2 	"/>
	<polygon id="XMLID_41_" style="fill:#B43A2C;" points="398.6,170.2 394.5,166.2 398.6,162.1 393.8,162.1 389.7,166.2 393.8,170.2 	
		"/>
	<polygon id="XMLID_40_" style="fill:#B43A2C;" points="388.4,170.2 384.3,166.2 388.4,162.1 383.6,162.1 379.5,166.2 383.6,170.2 	
		"/>
	<polygon id="XMLID_39_" style="fill:#B43A2C;" points="373.4,162.1 369.3,166.2 373.4,170.2 378.1,170.2 374.1,166.2 378.1,162.1 	
		"/>
	<polygon id="XMLID_38_" style="fill:#B43A2C;" points="367.9,170.2 363.9,166.2 367.9,162.1 363.2,162.1 359.1,166.2 363.2,170.2 	
		"/>
	<polygon id="XMLID_37_" style="fill:#B43A2C;" points="357.7,170.2 353.6,166.2 357.7,162.1 353,162.1 348.9,166.2 353,170.2 	"/>
	<polygon id="XMLID_36_" style="fill:#B43A2C;" points="347.5,170.2 343.4,166.2 347.5,162.1 342.8,162.1 338.7,166.2 342.8,170.2 	
		"/>
	<polygon id="XMLID_35_" style="fill:#B43A2C;" points="337.3,170.2 333.2,166.2 337.3,162.1 332.5,162.1 328.5,166.2 332.5,170.2 	
		"/>
	<polygon id="XMLID_34_" style="fill:#B43A2C;" points="322.3,162.1 318.3,166.2 322.3,170.2 327.1,170.2 323,166.2 327.1,162.1 	
		"/>
	<polygon id="XMLID_33_" style="fill:#B43A2C;" points="414.2,322.8 410.2,326.9 414.2,330.9 419,330.9 414.9,326.9 419,322.8 	"/>
	<polygon id="XMLID_32_" style="fill:#B43A2C;" points="404,322.8 400,326.9 404,330.9 408.8,330.9 404.7,326.9 408.8,322.8 	"/>
	<polygon id="XMLID_31_" style="fill:#B43A2C;" points="393.8,322.8 389.7,326.9 393.8,330.9 398.6,330.9 394.5,326.9 398.6,322.8 	
		"/>
	<polygon id="XMLID_30_" style="fill:#B43A2C;" points="383.6,322.8 379.5,326.9 383.6,330.9 388.4,330.9 384.3,326.9 388.4,322.8 	
		"/>
	<polygon id="XMLID_29_" style="fill:#B43A2C;" points="373.4,322.8 369.3,326.9 373.4,330.9 378.1,330.9 374.1,326.9 378.1,322.8 	
		"/>
	<polygon id="XMLID_28_" style="fill:#B43A2C;" points="363.2,322.8 359.1,326.9 363.2,330.9 367.9,330.9 363.9,326.9 367.9,322.8 	
		"/>
	<polygon id="XMLID_27_" style="fill:#B43A2C;" points="353,322.8 348.9,326.9 353,330.9 357.7,330.9 353.6,326.9 357.7,322.8 	"/>
	<polygon id="XMLID_26_" style="fill:#B43A2C;" points="342.8,322.8 338.7,326.9 342.8,330.9 347.5,330.9 343.4,326.9 347.5,322.8 	
		"/>
	<polygon id="XMLID_25_" style="fill:#B43A2C;" points="332.5,322.8 328.5,326.9 332.5,330.9 337.3,330.9 333.2,326.9 337.3,322.8 	
		"/>
	<polygon id="XMLID_24_" style="fill:#B43A2C;" points="322.3,322.8 318.3,326.9 322.3,330.9 327.1,330.9 323,326.9 327.1,322.8 	
		"/>
	
		<text id="XMLID_23_" transform="matrix(1 0 0 1 80.6655 266.6895)" style="fill:#3C4953; font-family:'Heebo-Bold'; font-size:59.8771px;">LUMINOSITY</text>
	
		<text id="XMLID_22_" transform="matrix(1 0 0 1 196.6982 337.8643)" style="fill:#3C4852; font-family:'Heebo-Regular'; font-size:26.4291px;">CONTROL</text>
	<path id="XMLID_4_" style="fill:#B43A2C;" d="M279.1,188c5.3-6,8.6-13.9,8.6-22.6c0-9-3.5-17.2-9.3-23.3v0c0,0,0,0,0,0
		c-6-6.4-14.3-10.4-23.7-10.7l0,0l-0.7,0c-0.2,0-0.3,0-0.5,0s-0.3,0-0.5,0l-0.7,0l0,0c-9.3,0.3-17.7,4.4-23.7,10.7c0,0,0,0,0,0
		c0,0,0,0,0,0c-5.7,6.1-9.3,14.3-9.3,23.3c0,8.7,3.3,16.6,8.6,22.6c0,0,0,0,0,0c0,0,0.1,0,0.1,0.1c6,6.7,14.6,11,24.2,11.4l0,0
		l0.7,0c0.2,0,0.3,0,0.5,0s0.3,0,0.5,0l0.7,0l0,0C264.4,199.2,273,194.8,279.1,188C279.1,188.1,279.1,188.1,279.1,188
		C279.1,188,279.1,188,279.1,188z M221.9,166.6H236c0.1,5,1.1,9.8,2.8,14.4c-3.3,1.2-6.5,2.8-9.5,4.9
		C224.9,180.6,222.1,173.9,221.9,166.6z M229.9,144.3c2.9,1.9,6,3.4,9.3,4.6c-2,4.8-3.1,10-3.2,15.4h-14.1
		C222.2,156.6,225.2,149.6,229.9,144.3z M285.3,164.2h-14.1c-0.1-5.4-1.2-10.6-3.2-15.4c3.3-1.1,6.4-2.7,9.3-4.6
		C282.1,149.6,285.1,156.6,285.3,164.2z M252.4,148.9c-3.4-0.1-6.7-0.6-10-1.5c2.4-4.9,5.8-9.3,10-13V148.9z M252.4,151.2v13h-14.1
		c0.1-5.1,1.2-10.1,3.1-14.7C245,150.6,248.7,151.1,252.4,151.2z M254.8,151.2c3.7-0.1,7.4-0.7,10.9-1.7c1.9,4.6,3,9.6,3.1,14.7
		h-14.1V151.2z M254.8,148.9v-14.5c4.2,3.7,7.6,8.1,10,13C261.5,148.3,258.2,148.8,254.8,148.9z M267,146.7c-2.3-4.7-5.4-9-9.3-12.7
		c6.9,0.9,13.1,4,17.9,8.6C272.9,144.2,270,145.6,267,146.7z M240.2,146.7c-3-1-5.9-2.4-8.6-4.1c4.8-4.6,11-7.7,17.9-8.6
		C245.6,137.6,242.4,141.9,240.2,146.7z M238.3,166.6h14.1v11.8c-3.9,0.1-7.7,0.7-11.4,1.8C239.4,175.9,238.5,171.3,238.3,166.6z
		 M252.4,180.7v15.7c-4.5-3.9-8-8.7-10.5-14C245.4,181.4,248.9,180.8,252.4,180.7z M254.8,196.4v-15.7c3.6,0.1,7.1,0.7,10.5,1.6
		C262.8,187.7,259.3,192.5,254.8,196.4z M254.8,178.4v-11.8h14.1c-0.1,4.7-1.1,9.3-2.7,13.6C262.5,179.1,258.7,178.5,254.8,178.4z
		 M271.2,166.6h14.1c-0.3,7.3-3,14-7.4,19.2c-3-2-6.2-3.6-9.5-4.9C270.1,176.4,271.1,171.6,271.2,166.6z M230.9,187.6
		c2.8-1.8,5.7-3.3,8.8-4.4c2.3,5.1,5.6,9.8,9.7,13.8C242.2,195.9,235.8,192.5,230.9,187.6z M257.7,196.9c4.2-4,7.4-8.6,9.7-13.8
		c3.1,1.1,6.1,2.6,8.8,4.4C271.5,192.5,265,195.9,257.7,196.9z"/>
</g>
</svg>
